<svg width="111" height="120" viewBox="0 0 111 120" fill="none" xmlns="http://www.w3.org/2000/svg">
<path d="M22 30.3956L46.6 39.026M72.4 48.1554C94.8 58.3808 88.1632 74.9609 90 95.9235C90.4789 101.389 89.3307 107.251 93.6 110.678C97.0154 113.42 110 112.973 110 112.973M72.4 48.1554C72.0438 60.6322 70.2847 67.7636 64.8 78.9665C58.2229 92.4007 38.4 110.678 38.4 110.678H24.4M72.4 48.1554C62.3245 44.5901 46.6 39.026 46.6 39.026M46.6 39.026C46.6 39.026 35.0217 51.4549 38.4 59.2973C40.8933 65.0853 51.6 68.5298 51.6 68.5298M46.6 39.026C46.6 39.026 53.3696 28.6796 51.6 21.9659C49.7914 15.1043 44.802 11.4334 38.4 8.41653C25.9764 2.562 4 16.7476 4 16.7476" stroke="black" stroke-width="13"/>
</svg>
