<svg width="191" height="205" viewBox="0 0 191 205" fill="none" xmlns="http://www.w3.org/2000/svg">
<path d="M6 190C6 190 21.8669 199.325 36 190C59.1705 174.713 29.7327 152.819 44 129C60.682 101.15 106.412 117.412 106.412 117.412M106.412 117.412C106.412 117.412 82.0683 126.019 77.5 145C72.5318 165.643 108.295 179.222 90 190C80.535 195.576 61.5 190 61.5 190M106.412 117.412C106.412 117.412 127.834 119.76 138.5 111.5C158.581 95.9493 123.891 61.4278 157.756 43.4661M157.756 43.4661C175.035 34.302 170.5 2 170.5 2M157.756 43.4661C171.596 65.1441 176.781 80.0926 179.332 105.678C181.982 132.251 157.756 145 157.756 145" stroke="black" stroke-width="21"/>
</svg>
