<svg width="572" height="222" viewBox="0 0 572 222" fill="none" xmlns="http://www.w3.org/2000/svg">
<path d="M16.3776 218C16.3776 218 6.52802 191.376 16.3776 180.582C30.1964 165.438 44.3395 203.39 64.5541 201.438C104.768 197.554 98.7407 101.146 98.7407 101.146M98.7407 101.146V128.136C98.7407 128.136 132.048 75.8237 159.186 79.0628C183.005 81.9057 176.302 128.639 197.613 121.695C208.329 118.203 217.878 101.146 217.878 101.146M98.7407 101.146L85.2902 69.5549M55.3789 9L85.2902 69.5549M85.2902 69.5549C85.2902 69.5549 140.298 66.5634 149.723 38.8844C154.207 25.7167 149.723 3 149.723 3M85.2902 69.5549C85.2902 69.5549 32.6665 64.7695 20.6791 89.7974C11.9697 107.981 24.6938 141.937 24.6938 141.937" stroke="black" stroke-width="23"/>
<path d="M188.378 218C188.378 218 178.528 191.376 188.378 180.582C202.196 165.438 216.339 203.39 236.554 201.438C276.768 197.554 270.741 101.146 270.741 101.146M270.741 101.146V128.136C270.741 128.136 304.048 75.8237 331.186 79.0628C355.005 81.9057 348.302 128.639 369.613 121.695C380.329 118.203 389.878 101.146 389.878 101.146M270.741 101.146L257.29 69.5549M227.379 9L257.29 69.5549M257.29 69.5549C257.29 69.5549 312.298 66.5634 321.723 38.8844C326.207 25.7167 321.723 3 321.723 3M257.29 69.5549C257.29 69.5549 204.667 64.7695 192.679 89.7974C183.97 107.981 196.694 141.937 196.694 141.937" stroke="#00137E" stroke-width="23"/>
<path d="M360.378 218C360.378 218 350.528 191.376 360.378 180.582C374.196 165.438 388.339 203.39 408.554 201.438C448.768 197.554 442.741 101.146 442.741 101.146M442.741 101.146V128.136C442.741 128.136 476.048 75.8237 503.186 79.0628C527.005 81.9057 520.302 128.639 541.613 121.695C552.329 118.203 561.878 101.146 561.878 101.146M442.741 101.146L429.29 69.5549M399.379 9L429.29 69.5549M429.29 69.5549C429.29 69.5549 484.298 66.5634 493.723 38.8844C498.207 25.7167 493.723 3 493.723 3M429.29 69.5549C429.29 69.5549 376.667 64.7695 364.679 89.7974C355.97 107.981 368.694 141.937 368.694 141.937" stroke="#0023E8" stroke-width="23"/>
</svg>
