<svg width="301" height="142" viewBox="0 0 301 142" fill="none" xmlns="http://www.w3.org/2000/svg">
<path d="M300.667 3C300.667 1.52725 299.473 0.333338 298 0.333338C296.527 0.333338 295.333 1.52725 295.333 3C295.333 4.47276 296.527 5.66667 298 5.66667C299.473 5.66667 300.667 4.47276 300.667 3ZM5.66667 139C5.66667 137.527 4.47276 136.333 3 136.333C1.52724 136.333 0.333333 137.527 0.333333 139C0.333333 140.473 1.52724 141.667 3 141.667C4.47276 141.667 5.66667 140.473 5.66667 139ZM298 139V139.5H298.5V139H298ZM116.5 139V138.5H3V139V139.5H116.5V139ZM298 3H297.5V139H298H298.5V3H298ZM298 139V138.5H116.5V139V139.5H298V139Z" fill="#414141"/>
</svg>
