<svg width="77" height="347" viewBox="0 0 77 347" fill="none" xmlns="http://www.w3.org/2000/svg">
<path d="M76.6667 3C76.6667 4.47276 75.4728 5.66667 74 5.66667C72.5272 5.66667 71.3333 4.47276 71.3333 3C71.3333 1.52724 72.5272 0.333333 74 0.333333C75.4728 0.333333 76.6667 1.52724 76.6667 3ZM5.66667 344C5.66667 345.473 4.47276 346.667 3 346.667C1.52724 346.667 0.333332 345.473 0.333332 344C0.333332 342.527 1.52724 341.333 3 341.333C4.47276 341.333 5.66667 342.527 5.66667 344ZM74 344H74.5V344.5H74V344ZM74 3H74.5V344H74H73.5V3H74ZM74 344V344.5H3V344V343.5H74V344Z" fill="#414141"/>
</svg>
