<svg width="77" height="347" viewBox="0 0 77 347" fill="none" xmlns="http://www.w3.org/2000/svg">
<path d="M0.333333 3C0.333333 4.47276 1.52724 5.66667 3 5.66667C4.47276 5.66667 5.66667 4.47276 5.66667 3C5.66667 1.52724 4.47276 0.333333 3 0.333333C1.52724 0.333333 0.333333 1.52724 0.333333 3ZM71.3333 344C71.3333 345.473 72.5272 346.667 74 346.667C75.4728 346.667 76.6667 345.473 76.6667 344C76.6667 342.527 75.4728 341.333 74 341.333C72.5272 341.333 71.3333 342.527 71.3333 344ZM3 344H2.5V344.5H3V344ZM3 344V344.5H74V344V343.5H3V344ZM3 3H2.5V344H3H3.5V3H3Z" fill="#414141"/>
</svg>
