<svg width="301" height="142" viewBox="0 0 301 142" fill="none" xmlns="http://www.w3.org/2000/svg">
<path d="M0.333333 3C0.333333 1.52725 1.52724 0.333338 3 0.333338C4.47276 0.333338 5.66667 1.52725 5.66667 3C5.66667 4.47276 4.47276 5.66667 3 5.66667C1.52724 5.66667 0.333333 4.47276 0.333333 3ZM295.333 139C295.333 137.527 296.527 136.333 298 136.333C299.473 136.333 300.667 137.527 300.667 139C300.667 140.473 299.473 141.667 298 141.667C296.527 141.667 295.333 140.473 295.333 139ZM3 139V139.5H2.5V139H3ZM194.049 139V138.5H298V139V139.5H194.049V139ZM3 3H3.5V139H3H2.5V3H3ZM3 139V138.5H194.049V139V139.5H3V139Z" fill="#414141"/>
</svg>
