<svg width="1236" height="390" viewBox="0 0 1236 390" fill="none" xmlns="http://www.w3.org/2000/svg">
<path d="M129.67 310.047V299.749H130.239V310.047H129.67ZM124.805 305.182V304.614H135.104V305.182H124.805Z" fill="#C5C5C5"/>
<path d="M129.67 166.047V155.749H130.239V166.047H129.67ZM124.805 161.182V160.614H135.104V161.182H124.805Z" fill="#C5C5C5"/>
<path d="M129.67 22.0469V11.7486H130.239V22.0469H129.67ZM124.805 17.1818V16.6136H135.104V17.1818H124.805Z" fill="#C5C5C5"/>
<path d="M129.67 382.047V371.749H130.239V382.047H129.67ZM124.805 377.182V376.614H135.104V377.182H124.805Z" fill="#C5C5C5"/>
<path d="M129.67 238.047V227.749H130.239V238.047H129.67ZM124.805 233.182V232.614H135.104V233.182H124.805Z" fill="#C5C5C5"/>
<path d="M129.67 94.0469V83.7486H130.239V94.0469H129.67ZM124.805 89.1818V88.6136H135.104V89.1818H124.805Z" fill="#C5C5C5"/>
<path d="M1105.67 310.047V299.749H1106.24V310.047H1105.67ZM1100.81 305.182V304.614H1111.1V305.182H1100.81Z" fill="#C5C5C5"/>
<path d="M1105.67 166.047V155.749H1106.24V166.047H1105.67ZM1100.81 161.182V160.614H1111.1V161.182H1100.81Z" fill="#C5C5C5"/>
<path d="M1105.67 22.0469V11.7486H1106.24V22.0469H1105.67ZM1100.81 17.1818V16.6136H1111.1V17.1818H1100.81Z" fill="#C5C5C5"/>
<path d="M1105.67 382.047V371.749H1106.24V382.047H1105.67ZM1100.81 377.182V376.614H1111.1V377.182H1100.81Z" fill="#C5C5C5"/>
<path d="M1105.67 238.047V227.749H1106.24V238.047H1105.67ZM1100.81 233.182V232.614H1111.1V233.182H1100.81Z" fill="#C5C5C5"/>
<path d="M1105.67 94.0469V83.7486H1106.24V94.0469H1105.67ZM1100.81 89.1818V88.6136H1111.1V89.1818H1100.81Z" fill="#C5C5C5"/>
<path d="M373.67 310.047V299.749H374.239V310.047H373.67ZM368.805 305.182V304.614H379.104V305.182H368.805Z" fill="#C5C5C5"/>
<path d="M373.67 166.047V155.749H374.239V166.047H373.67ZM368.805 161.182V160.614H379.104V161.182H368.805Z" fill="#C5C5C5"/>
<path d="M373.67 22.0469V11.7486H374.239V22.0469H373.67ZM368.805 17.1818V16.6136H379.104V17.1818H368.805Z" fill="#C5C5C5"/>
<path d="M373.67 382.047V371.749H374.239V382.047H373.67ZM368.805 377.182V376.614H379.104V377.182H368.805Z" fill="#C5C5C5"/>
<path d="M373.67 238.047V227.749H374.239V238.047H373.67ZM368.805 233.182V232.614H379.104V233.182H368.805Z" fill="#C5C5C5"/>
<path d="M373.67 94.0469V83.7486H374.239V94.0469H373.67ZM368.805 89.1818V88.6136H379.104V89.1818H368.805Z" fill="#C5C5C5"/>
<path d="M617.67 310.047V299.749H618.239V310.047H617.67ZM612.805 305.182V304.614H623.104V305.182H612.805Z" fill="#C5C5C5"/>
<path d="M617.67 166.047V155.749H618.239V166.047H617.67ZM612.805 161.182V160.614H623.104V161.182H612.805Z" fill="#C5C5C5"/>
<path d="M617.67 22.0469V11.7486H618.239V22.0469H617.67ZM612.805 17.1818V16.6136H623.104V17.1818H612.805Z" fill="#C5C5C5"/>
<path d="M617.67 382.047V371.749H618.239V382.047H617.67ZM612.805 377.182V376.614H623.104V377.182H612.805Z" fill="#C5C5C5"/>
<path d="M617.67 238.047V227.749H618.239V238.047H617.67ZM612.805 233.182V232.614H623.104V233.182H612.805Z" fill="#C5C5C5"/>
<path d="M617.67 94.0469V83.7486H618.239V94.0469H617.67ZM612.805 89.1818V88.6136H623.104V89.1818H612.805Z" fill="#C5C5C5"/>
<path d="M861.67 310.047V299.749H862.239V310.047H861.67ZM856.805 305.182V304.614H867.104V305.182H856.805Z" fill="#C5C5C5"/>
<path d="M861.67 166.047V155.749H862.239V166.047H861.67ZM856.805 161.182V160.614H867.104V161.182H856.805Z" fill="#C5C5C5"/>
<path d="M861.67 22.0469V11.7486H862.239V22.0469H861.67ZM856.805 17.1818V16.6136H867.104V17.1818H856.805Z" fill="#C5C5C5"/>
<path d="M861.67 382.047V371.749H862.239V382.047H861.67ZM856.805 377.182V376.614H867.104V377.182H856.805Z" fill="#C5C5C5"/>
<path d="M861.67 238.047V227.749H862.239V238.047H861.67ZM856.805 233.182V232.614H867.104V233.182H856.805Z" fill="#C5C5C5"/>
<path d="M861.67 94.0469V83.7486H862.239V94.0469H861.67ZM856.805 89.1818V88.6136H867.104V89.1818H856.805Z" fill="#C5C5C5"/>
<path d="M251.67 310.047V299.749H252.239V310.047H251.67ZM246.805 305.182V304.614H257.104V305.182H246.805Z" fill="#C5C5C5"/>
<path d="M251.67 166.047V155.749H252.239V166.047H251.67ZM246.805 161.182V160.614H257.104V161.182H246.805Z" fill="#C5C5C5"/>
<path d="M251.67 22.0469V11.7486H252.239V22.0469H251.67ZM246.805 17.1818V16.6136H257.104V17.1818H246.805Z" fill="#C5C5C5"/>
<path d="M251.67 382.047V371.749H252.239V382.047H251.67ZM246.805 377.182V376.614H257.104V377.182H246.805Z" fill="#C5C5C5"/>
<path d="M251.67 238.047V227.749H252.239V238.047H251.67ZM246.805 233.182V232.614H257.104V233.182H246.805Z" fill="#C5C5C5"/>
<path d="M251.67 94.0469V83.7486H252.239V94.0469H251.67ZM246.805 89.1818V88.6136H257.104V89.1818H246.805Z" fill="#C5C5C5"/>
<path d="M7.67045 310.047V299.749H8.23864V310.047H7.67045ZM2.8054 305.182V304.614H13.1037V305.182H2.8054Z" fill="#C5C5C5"/>
<path d="M7.67045 166.047V155.749H8.23864V166.047H7.67045ZM2.8054 161.182V160.614H13.1037V161.182H2.8054Z" fill="#C5C5C5"/>
<path d="M7.67045 22.0469V11.7486H8.23864V22.0469H7.67045ZM2.8054 17.1818V16.6136H13.1037V17.1818H2.8054Z" fill="#C5C5C5"/>
<path d="M7.67045 382.047V371.749H8.23864V382.047H7.67045ZM2.8054 377.182V376.614H13.1037V377.182H2.8054Z" fill="#C5C5C5"/>
<path d="M7.67045 238.047V227.749H8.23864V238.047H7.67045ZM2.8054 233.182V232.614H13.1037V233.182H2.8054Z" fill="#C5C5C5"/>
<path d="M7.67045 94.0469V83.7486H8.23864V94.0469H7.67045ZM2.8054 89.1818V88.6136H13.1037V89.1818H2.8054Z" fill="#C5C5C5"/>
<path d="M1227.67 310.047V299.749H1228.24V310.047H1227.67ZM1222.81 305.182V304.614H1233.1V305.182H1222.81Z" fill="#C5C5C5"/>
<path d="M1227.67 166.047V155.749H1228.24V166.047H1227.67ZM1222.81 161.182V160.614H1233.1V161.182H1222.81Z" fill="#C5C5C5"/>
<path d="M1227.67 22.0469V11.7486H1228.24V22.0469H1227.67ZM1222.81 17.1818V16.6136H1233.1V17.1818H1222.81Z" fill="#C5C5C5"/>
<path d="M1227.67 382.047V371.749H1228.24V382.047H1227.67ZM1222.81 377.182V376.614H1233.1V377.182H1222.81Z" fill="#C5C5C5"/>
<path d="M1227.67 238.047V227.749H1228.24V238.047H1227.67ZM1222.81 233.182V232.614H1233.1V233.182H1222.81Z" fill="#C5C5C5"/>
<path d="M1227.67 94.0469V83.7486H1228.24V94.0469H1227.67ZM1222.81 89.1818V88.6136H1233.1V89.1818H1222.81Z" fill="#C5C5C5"/>
<path d="M495.67 310.047V299.749H496.239V310.047H495.67ZM490.805 305.182V304.614H501.104V305.182H490.805Z" fill="#C5C5C5"/>
<path d="M495.67 166.047V155.749H496.239V166.047H495.67ZM490.805 161.182V160.614H501.104V161.182H490.805Z" fill="#C5C5C5"/>
<path d="M495.67 22.0469V11.7486H496.239V22.0469H495.67ZM490.805 17.1818V16.6136H501.104V17.1818H490.805Z" fill="#C5C5C5"/>
<path d="M495.67 382.047V371.749H496.239V382.047H495.67ZM490.805 377.182V376.614H501.104V377.182H490.805Z" fill="#C5C5C5"/>
<path d="M495.67 238.047V227.749H496.239V238.047H495.67ZM490.805 233.182V232.614H501.104V233.182H490.805Z" fill="#C5C5C5"/>
<path d="M495.67 94.0469V83.7486H496.239V94.0469H495.67ZM490.805 89.1818V88.6136H501.104V89.1818H490.805Z" fill="#C5C5C5"/>
<path d="M739.67 310.047V299.749H740.239V310.047H739.67ZM734.805 305.182V304.614H745.104V305.182H734.805Z" fill="#C5C5C5"/>
<path d="M739.67 166.047V155.749H740.239V166.047H739.67ZM734.805 161.182V160.614H745.104V161.182H734.805Z" fill="#C5C5C5"/>
<path d="M739.67 22.0469V11.7486H740.239V22.0469H739.67ZM734.805 17.1818V16.6136H745.104V17.1818H734.805Z" fill="#C5C5C5"/>
<path d="M739.67 382.047V371.749H740.239V382.047H739.67ZM734.805 377.182V376.614H745.104V377.182H734.805Z" fill="#C5C5C5"/>
<path d="M739.67 238.047V227.749H740.239V238.047H739.67ZM734.805 233.182V232.614H745.104V233.182H734.805Z" fill="#C5C5C5"/>
<path d="M739.67 94.0469V83.7486H740.239V94.0469H739.67ZM734.805 89.1818V88.6136H745.104V89.1818H734.805Z" fill="#C5C5C5"/>
<path d="M983.67 310.047V299.749H984.239V310.047H983.67ZM978.805 305.182V304.614H989.104V305.182H978.805Z" fill="#C5C5C5"/>
<path d="M983.67 166.047V155.749H984.239V166.047H983.67ZM978.805 161.182V160.614H989.104V161.182H978.805Z" fill="#C5C5C5"/>
<path d="M983.67 22.0469V11.7486H984.239V22.0469H983.67ZM978.805 17.1818V16.6136H989.104V17.1818H978.805Z" fill="#C5C5C5"/>
<path d="M983.67 382.047V371.749H984.239V382.047H983.67ZM978.805 377.182V376.614H989.104V377.182H978.805Z" fill="#C5C5C5"/>
<path d="M983.67 238.047V227.749H984.239V238.047H983.67ZM978.805 233.182V232.614H989.104V233.182H978.805Z" fill="#C5C5C5"/>
<path d="M983.67 94.0469V83.7486H984.239V94.0469H983.67ZM978.805 89.1818V88.6136H989.104V89.1818H978.805Z" fill="#C5C5C5"/>
</svg>
