<svg width="1240" height="804" viewBox="0 0 1240 804" fill="none" xmlns="http://www.w3.org/2000/svg">
<mask id="path-1-inside-1_539_1038" fill="white">
<path d="M0 0H248.214V268H0V0Z"/>
</mask>
<path d="M248.214 268V268.5H248.714V268H248.214ZM0 268H-0.5V268.5H0V268ZM248.214 0H247.714V268H248.214H248.714V0H248.214ZM248.214 268V267.5H0V268V268.5H248.214V268ZM0 268H0.5V0H0H-0.5V268H0Z" fill="#BCBABA" mask="url(#path-1-inside-1_539_1038)"/>
<mask id="path-3-inside-2_539_1038" fill="white">
<path d="M0 268H248.214V536H0V268Z"/>
</mask>
<path d="M248.214 536V536.5H248.714V536H248.214ZM0 536H-0.5V536.5H0V536ZM248.214 268H247.714V536H248.214H248.714V268H248.214ZM248.214 536V535.5H0V536V536.5H248.214V536ZM0 536H0.5V268H0H-0.5V536H0Z" fill="#BCBABA" mask="url(#path-3-inside-2_539_1038)"/>
<mask id="path-5-inside-3_539_1038" fill="white">
<path d="M0 804H248.214V536H0V804Z"/>
</mask>
<path d="M248.214 536V535.5H248.714V536H248.214ZM0 536H-0.5V535.5H0V536ZM248.214 804H247.714V536H248.214H248.714V804H248.214ZM248.214 536V536.5H0V536V535.5H248.214V536ZM0 536H0.5V804H0H-0.5V536H0Z" fill="#BCBABA" mask="url(#path-5-inside-3_539_1038)"/>
<mask id="path-7-inside-4_539_1038" fill="white">
<path d="M495.359 0H743.573V268H495.359V0Z"/>
</mask>
<path d="M743.573 268V268.5H744.073V268H743.573ZM495.359 268H494.859V268.5H495.359V268ZM743.573 0H743.073V268H743.573H744.073V0H743.573ZM743.573 268V267.5H495.359V268V268.5H743.573V268ZM495.359 268H495.859V0H495.359H494.859V268H495.359Z" fill="#BCBABA" mask="url(#path-7-inside-4_539_1038)"/>
<mask id="path-9-inside-5_539_1038" fill="white">
<path d="M495.359 268H743.573V536H495.359V268Z"/>
</mask>
<path d="M743.573 536V536.5H744.073V536H743.573ZM495.359 536H494.859V536.5H495.359V536ZM743.573 268H743.073V536H743.573H744.073V268H743.573ZM743.573 536V535.5H495.359V536V536.5H743.573V536ZM495.359 536H495.859V268H495.359H494.859V536H495.359Z" fill="#BCBABA" mask="url(#path-9-inside-5_539_1038)"/>
<mask id="path-11-inside-6_539_1038" fill="white">
<path d="M495.359 804H743.573V536H495.359V804Z"/>
</mask>
<path d="M743.573 536V535.5H744.073V536H743.573ZM495.359 536H494.859V535.5H495.359V536ZM743.573 804H743.073V536H743.573H744.073V804H743.573ZM743.573 536V536.5H495.359V536V535.5H743.573V536ZM495.359 536H495.859V804H495.359H494.859V536H495.359Z" fill="#BCBABA" mask="url(#path-11-inside-6_539_1038)"/>
<mask id="path-13-inside-7_539_1038" fill="white">
<path d="M248.215 0H496.429V268H248.215V0Z"/>
</mask>
<path d="M496.429 268V268.5H496.929V268H496.429ZM248.215 268H247.715V268.5H248.215V268ZM496.429 0H495.929V268H496.429H496.929V0H496.429ZM496.429 268V267.5H248.215V268V268.5H496.429V268ZM248.215 268H248.715V0H248.215H247.715V268H248.215Z" fill="#BCBABA" mask="url(#path-13-inside-7_539_1038)"/>
<mask id="path-15-inside-8_539_1038" fill="white">
<path d="M248.215 268H496.429V536H248.215V268Z"/>
</mask>
<path d="M496.429 536V536.5H496.929V536H496.429ZM248.215 536H247.715V536.5H248.215V536ZM496.429 268H495.929V536H496.429H496.929V268H496.429ZM496.429 536V535.5H248.215V536V536.5H496.429V536ZM248.215 536H248.715V268H248.215H247.715V536H248.215Z" fill="#BCBABA" mask="url(#path-15-inside-8_539_1038)"/>
<mask id="path-17-inside-9_539_1038" fill="white">
<path d="M248.215 804H496.429V536H248.215V804Z"/>
</mask>
<path d="M496.429 536V535.5H496.929V536H496.429ZM248.215 536H247.715V535.5H248.215V536ZM496.429 804H495.929V536H496.429H496.929V804H496.429ZM496.429 536V536.5H248.215V536V535.5H496.429V536ZM248.215 536H248.715V804H248.215H247.715V536H248.215Z" fill="#BCBABA" mask="url(#path-17-inside-9_539_1038)"/>
<mask id="path-19-inside-10_539_1038" fill="white">
<path d="M743.57 0H991.784V268H743.57V0Z"/>
</mask>
<path d="M991.784 268V268.5H992.284V268H991.784ZM743.57 268H743.07V268.5H743.57V268ZM991.784 0H991.284V268H991.784H992.284V0H991.784ZM991.784 268V267.5H743.57V268V268.5H991.784V268ZM743.57 268H744.07V0H743.57H743.07V268H743.57Z" fill="#BCBABA" mask="url(#path-19-inside-10_539_1038)"/>
<mask id="path-21-inside-11_539_1038" fill="white">
<path d="M743.57 268H991.784V536H743.57V268Z"/>
</mask>
<path d="M991.784 536V536.5H992.284V536H991.784ZM743.57 536H743.07V536.5H743.57V536ZM991.784 268H991.284V536H991.784H992.284V268H991.784ZM991.784 536V535.5H743.57V536V536.5H991.784V536ZM743.57 536H744.07V268H743.57H743.07V536H743.57Z" fill="#BCBABA" mask="url(#path-21-inside-11_539_1038)"/>
<mask id="path-23-inside-12_539_1038" fill="white">
<path d="M743.57 804H991.784V536H743.57V804Z"/>
</mask>
<path d="M991.784 536V535.5H992.284V536H991.784ZM743.57 536H743.07V535.5H743.57V536ZM991.784 804H991.284V536H991.784H992.284V804H991.784ZM991.784 536V536.5H743.57V536V535.5H991.784V536ZM743.57 536H744.07V804H743.57H743.07V536H743.57Z" fill="#BCBABA" mask="url(#path-23-inside-12_539_1038)"/>
<mask id="path-25-inside-13_539_1038" fill="white">
<path d="M991.785 0H1240V268H991.785V0Z"/>
</mask>
<path d="M1240 268V268.5H1240.5V268H1240ZM991.785 268H991.285V268.5H991.785V268ZM1240 0H1239.5V268H1240H1240.5V0H1240ZM1240 268V267.5H991.785V268V268.5H1240V268ZM991.785 268H992.285V0H991.785H991.285V268H991.785Z" fill="#BCBABA" mask="url(#path-25-inside-13_539_1038)"/>
<mask id="path-27-inside-14_539_1038" fill="white">
<path d="M991.785 268H1240V536H991.785V268Z"/>
</mask>
<path d="M1240 536V536.5H1240.5V536H1240ZM991.785 536H991.285V536.5H991.785V536ZM1240 268H1239.5V536H1240H1240.5V268H1240ZM1240 536V535.5H991.785V536V536.5H1240V536ZM991.785 536H992.285V268H991.785H991.285V536H991.785Z" fill="#BCBABA" mask="url(#path-27-inside-14_539_1038)"/>
<mask id="path-29-inside-15_539_1038" fill="white">
<path d="M991.785 804H1240V536H991.785V804Z"/>
</mask>
<path d="M1240 536V535.5H1240.5V536H1240ZM991.785 536H991.285V535.5H991.785V536ZM1240 804H1239.5V536H1240H1240.5V804H1240ZM1240 536V536.5H991.785V536V535.5H1240V536ZM991.785 536H992.285V804H991.785H991.285V536H991.785Z" fill="#BCBABA" mask="url(#path-29-inside-15_539_1038)"/>
</svg>
