<svg width="107" height="111" viewBox="0 0 107 111" fill="none" xmlns="http://www.w3.org/2000/svg">
<path d="M2 104.402C2 104.402 14.2454 107.761 20.5426 104.402C32.7633 97.8826 4.56711 82.361 12.4806 71.4492C20.8436 59.9175 47.9535 68.419 47.9535 68.419M47.9535 68.419C47.9535 68.419 49.0132 87.2073 57.6279 93.0389C70.2237 101.565 80.7172 63.9746 91.8915 74.1005C97.2663 78.9712 97.938 91.1451 97.938 91.1451M47.9535 68.419L47.5504 44.1779M47.5504 44.1779L106 33.9512M47.5504 44.1779C47.5504 44.1779 36.8636 29.4334 26.9922 23.3457C20.097 19.0934 7.64341 15.3916 7.64341 15.3916M47.5504 44.1779C47.5504 44.1779 51.9878 31.3798 57.6279 24.8608C62.6375 19.0706 73.3488 12.7402 73.3488 12.7402" stroke="black" stroke-width="9"/>
<path d="M78.5898 7.43905L83.024 1" stroke="black" stroke-width="3"/>
<path d="M82.6199 17.2868L92.1285 17.73" stroke="black" stroke-width="3"/>
<path d="M81.8143 12.411L91.4889 7.44104" stroke="black" stroke-width="3"/>
</svg>
