<svg width="205" height="214" viewBox="0 0 205 214" fill="none" xmlns="http://www.w3.org/2000/svg">
<path d="M3 200.853C3 200.853 26.5489 207.313 38.6589 200.853C62.1601 188.315 7.93675 158.466 23.155 137.482C39.2377 115.306 91.3721 131.655 91.3721 131.655M91.3721 131.655C91.3721 131.655 93.4101 167.786 109.977 179.001C134.199 195.398 154.379 123.108 175.868 142.581C186.204 151.947 187.496 175.359 187.496 175.359M91.3721 131.655L90.5969 85.0372M90.5969 85.0372L203 65.3704M90.5969 85.0372C90.5969 85.0372 70.0454 56.6824 51.062 44.9752C37.8019 36.7977 13.8527 29.6789 13.8527 29.6789M90.5969 85.0372C90.5969 85.0372 99.1304 60.4254 109.977 47.8888C119.61 36.7538 140.209 24.5801 140.209 24.5801" stroke="black" stroke-width="20"/>
<path d="M150.285 14.3828L158.812 2" stroke="black" stroke-width="6"/>
<path d="M158.042 33.3237L176.328 34.1759" stroke="black" stroke-width="6"/>
<path d="M156.485 23.9423L175.09 14.3847" stroke="black" stroke-width="6"/>
</svg>
