<svg width="1240" height="450" viewBox="0 0 1240 450" fill="none" xmlns="http://www.w3.org/2000/svg">
<mask id="path-1-inside-1_997_9750" fill="white">
<path d="M0 0H322V449H0V0Z"/>
</mask>
<path d="M0 0H322V449H0V0Z" fill="white"/>
<path d="M0 0V-1H-1V0H0ZM322 0H323V-1H322V0ZM0 0V1H322V0V-1H0V0ZM322 0H321V449H322H323V0H322ZM0 449H1V0H0H-1V449H0Z" fill="black" mask="url(#path-1-inside-1_997_9750)"/>
<mask id="mask0_997_9750" style="mask-type:alpha" maskUnits="userSpaceOnUse" x="17" y="12" width="288" height="378">
<rect x="17" y="12" width="287.609" height="378" fill="black"/>
</mask>
<g mask="url(#mask0_997_9750)">
<rect x="82.1406" y="86.9395" width="157.03" height="122.298" rx="14.5" fill="#E7E7E7" stroke="black"/>
<path d="M245.515 347.856L259.018 364.223H65.7109L77.9854 347.856H245.515ZM212.796 218.913C216.325 218.629 218.488 219.549 221.588 220.885L222.981 221.479C225.674 222.613 227.29 223.254 229.373 224.952L229.796 225.306C231.51 226.776 232.406 227.879 233.537 229.616L234.04 230.402C235.5 232.724 236.258 234.192 236.891 236.685L237.016 237.196C237.809 240.58 238.196 242.806 237.241 245.845L237.031 246.464C236.235 248.671 235.025 250.058 233.513 251.251C232.749 251.853 231.91 252.404 230.997 252.99C230.316 253.427 229.596 253.884 228.85 254.388L228.096 254.909C225.15 256.996 223.344 258.173 220.183 259.38L219.531 259.622C216.952 260.557 213.43 260.988 210.519 261.182C209.07 261.278 207.784 261.315 206.861 261.328C206.4 261.334 206.03 261.334 205.775 261.333C205.648 261.332 205.55 261.332 205.484 261.331C205.451 261.331 205.426 261.33 205.409 261.33C205.401 261.33 205.395 261.329 205.391 261.329H205.385L204.875 261.318V294.615L205.043 294.764L259.077 342.795L245.677 346.856H77.8174L65.6631 342.805L116.717 294.754L116.875 294.606V261.326L116.372 261.329H116.282C116.222 261.329 116.133 261.328 116.018 261.327C115.786 261.325 115.449 261.32 115.03 261.309C114.192 261.285 113.024 261.235 111.707 261.13C109.225 260.932 106.259 260.541 103.972 259.78L103.523 259.624C99.0881 257.983 94.8963 256.14 91.7754 253.559C88.772 251.075 86.768 247.914 86.5039 243.568L86.4844 243.144C86.4146 241.099 86.559 239.815 87.0811 238.034L87.3281 237.237C87.9847 235.216 88.7747 234.186 89.8447 232.475L90.3213 231.694C91.8369 229.145 92.3315 227.511 94.1826 225.667L94.5713 225.295C96.6003 223.431 98.2705 222.911 100.713 221.932L101.81 221.479C102.566 221.155 103.237 220.817 103.858 220.499C104.484 220.179 105.052 219.885 105.626 219.635C106.686 219.173 107.75 218.87 109.122 218.902L109.4 218.913C111.075 219.005 113.041 220.022 114.641 221.077C115.429 221.597 116.106 222.112 116.587 222.496C116.827 222.688 117.018 222.847 117.147 222.958C117.212 223.013 117.262 223.056 117.295 223.085C117.311 223.099 117.324 223.111 117.332 223.118C117.336 223.122 117.339 223.124 117.341 223.126L117.343 223.128L117.485 223.256H202.927L203.056 223.166H203.057C203.057 223.166 203.058 223.165 203.059 223.164C203.061 223.162 203.065 223.16 203.07 223.156C203.081 223.149 203.096 223.138 203.117 223.124C203.159 223.096 203.222 223.053 203.303 222.999C203.465 222.891 203.702 222.736 204 222.549C204.597 222.173 205.437 221.669 206.407 221.154C208.243 220.181 210.484 219.205 212.414 218.953L212.796 218.913Z" fill="url(#paint0_linear_997_9750)" stroke="black"/>
<path d="M232.389 253.602C232.698 253.969 233.151 254.498 233.723 255.146C234.868 256.442 236.492 258.216 238.41 260.126C242.117 263.814 246.966 268.056 251.609 270.32L252.057 270.533C255.61 272.171 260.465 273.265 264.4 273.949C266.373 274.293 268.127 274.535 269.388 274.691C270.018 274.769 270.525 274.826 270.876 274.863C270.907 274.866 270.938 274.869 270.968 274.872L270.968 290.793C270.848 290.78 270.71 290.766 270.554 290.748C269.93 290.674 269.023 290.561 267.899 290.404C265.65 290.089 262.528 289.599 259.037 288.893C252.257 287.523 244.142 285.353 238.314 282.119L237.757 281.803C232.69 278.855 227.196 273.689 222.949 269.231C220.83 267.007 219.03 264.969 217.76 263.487C217.126 262.746 216.623 262.144 216.28 261.728C216.259 261.702 216.239 261.677 216.219 261.652C216.295 261.628 216.378 261.604 216.465 261.576C217.059 261.386 217.886 261.115 218.819 260.788C220.448 260.219 222.418 259.476 224.04 258.7L224.712 258.367C226.372 257.506 228.349 256.186 229.899 255.092C230.677 254.543 231.353 254.046 231.834 253.688C231.982 253.577 232.11 253.479 232.219 253.397C232.27 253.458 232.326 253.527 232.389 253.602Z" fill="#E7E7E7" stroke="black"/>
<path d="M89.2169 252.93C88.907 253.297 88.4542 253.826 87.8821 254.474C86.738 255.77 85.1139 257.544 83.195 259.454C79.4889 263.142 74.6393 267.384 69.9963 269.648L69.548 269.861C65.9952 271.499 61.1404 272.593 57.2056 273.278C55.2322 273.621 53.478 273.863 52.2174 274.019C51.5873 274.097 51.0801 274.154 50.7298 274.191C50.698 274.194 50.6671 274.197 50.6379 274.2L50.6375 290.122C50.7572 290.108 50.8957 290.094 51.0516 290.076C51.6757 290.002 52.5822 289.889 53.7066 289.732C55.9557 289.418 59.0778 288.927 62.5687 288.221C69.3482 286.851 77.4636 284.681 83.2915 281.447L83.8484 281.131C88.9154 278.183 94.4097 273.017 98.6568 268.559C100.776 266.335 102.575 264.297 103.845 262.815C104.48 262.074 104.982 261.472 105.326 261.056C105.347 261.03 105.367 261.005 105.387 260.98C105.31 260.956 105.228 260.932 105.141 260.904C104.547 260.714 103.719 260.443 102.786 260.116C101.158 259.547 99.1877 258.804 97.5654 258.029L96.8939 257.695C95.2334 256.834 93.2564 255.514 91.7061 254.42C90.9283 253.871 90.2527 253.375 89.7717 253.016C89.624 252.906 89.4953 252.807 89.3868 252.725C89.3358 252.786 89.2797 252.855 89.2169 252.93Z" fill="#E7E7E7" stroke="black"/>
<rect x="179.395" y="364.789" width="13.761" height="53.7027" fill="#D9D9D9" stroke="black"/>
<rect x="132.504" y="364.789" width="13.761" height="53.7027" fill="#D9D9D9" stroke="black"/>
<rect x="142.055" y="210.232" width="34.6002" height="12.0245" fill="#E7E7E7" stroke="black"/>
<mask id="path-11-inside-2_997_9750" fill="white">
<path d="M293.499 263.689C290.293 262.457 286.793 262.203 283.443 262.96C280.093 263.716 277.042 265.449 274.676 267.939C272.311 270.43 270.737 273.566 270.154 276.95C269.571 280.335 270.005 283.817 271.4 286.955C272.796 290.094 275.091 292.748 277.995 294.582C280.899 296.416 284.281 297.348 287.715 297.259C291.148 297.171 294.478 296.066 297.284 294.085C300.09 292.104 302.245 289.336 303.478 286.13L291.858 281.663C291.509 282.571 290.899 283.355 290.104 283.916C289.31 284.477 288.367 284.79 287.394 284.815C286.422 284.84 285.464 284.576 284.642 284.057C283.82 283.537 283.17 282.786 282.775 281.897C282.379 281.008 282.257 280.023 282.422 279.064C282.587 278.106 283.033 277.218 283.702 276.512C284.372 275.807 285.236 275.316 286.185 275.102C287.133 274.888 288.124 274.96 289.032 275.309L293.499 263.689Z"/>
</mask>
<path d="M293.499 263.689C290.293 262.457 286.793 262.203 283.443 262.96C280.093 263.716 277.042 265.449 274.676 267.939C272.311 270.43 270.737 273.566 270.154 276.95C269.571 280.335 270.005 283.817 271.4 286.955C272.796 290.094 275.091 292.748 277.995 294.582C280.899 296.416 284.281 297.348 287.715 297.259C291.148 297.171 294.478 296.066 297.284 294.085C300.09 292.104 302.245 289.336 303.478 286.13L291.858 281.663C291.509 282.571 290.899 283.355 290.104 283.916C289.31 284.477 288.367 284.79 287.394 284.815C286.422 284.84 285.464 284.576 284.642 284.057C283.82 283.537 283.17 282.786 282.775 281.897C282.379 281.008 282.257 280.023 282.422 279.064C282.587 278.106 283.033 277.218 283.702 276.512C284.372 275.807 285.236 275.316 286.185 275.102C287.133 274.888 288.124 274.96 289.032 275.309L293.499 263.689Z" fill="#EBC4C9" stroke="black" stroke-width="2" mask="url(#path-11-inside-2_997_9750)"/>
<mask id="path-12-inside-3_997_9750" fill="white">
<path d="M28.1069 263.015C31.3129 261.783 34.8123 261.529 38.1626 262.286C41.5129 263.042 44.5636 264.775 46.929 267.266C49.2944 269.756 50.8682 272.892 51.4514 276.277C52.0345 279.661 51.6009 283.143 50.2053 286.281C48.8097 289.42 46.5148 292.074 43.6109 293.908C40.7069 295.742 37.3243 296.674 33.8907 296.585C30.4572 296.497 27.127 295.392 24.3212 293.411C21.5155 291.43 19.3602 288.662 18.1279 285.456L29.7475 280.989C30.0964 281.897 30.7067 282.681 31.5012 283.242C32.2958 283.803 33.2388 284.116 34.211 284.141C35.1833 284.166 36.1412 283.902 36.9635 283.383C37.7858 282.864 38.4356 282.112 38.8308 281.223C39.226 280.335 39.3488 279.349 39.1837 278.39C39.0185 277.432 38.5729 276.544 37.9031 275.839C37.2333 275.133 36.3694 274.643 35.4207 274.428C34.472 274.214 33.4811 274.286 32.5732 274.635L28.1069 263.015Z"/>
</mask>
<path d="M28.1069 263.015C31.3129 261.783 34.8123 261.529 38.1626 262.286C41.5129 263.042 44.5636 264.775 46.929 267.266C49.2944 269.756 50.8682 272.892 51.4514 276.277C52.0345 279.661 51.6009 283.143 50.2053 286.281C48.8097 289.42 46.5148 292.074 43.6109 293.908C40.7069 295.742 37.3243 296.674 33.8907 296.585C30.4572 296.497 27.127 295.392 24.3212 293.411C21.5155 291.43 19.3602 288.662 18.1279 285.456L29.7475 280.989C30.0964 281.897 30.7067 282.681 31.5012 283.242C32.2958 283.803 33.2388 284.116 34.211 284.141C35.1833 284.166 36.1412 283.902 36.9635 283.383C37.7858 282.864 38.4356 282.112 38.8308 281.223C39.226 280.335 39.3488 279.349 39.1837 278.39C39.0185 277.432 38.5729 276.544 37.9031 275.839C37.2333 275.133 36.3694 274.643 35.4207 274.428C34.472 274.214 33.4811 274.286 32.5732 274.635L28.1069 263.015Z" fill="#EBC4C9" stroke="black" stroke-width="2" mask="url(#path-12-inside-3_997_9750)"/>
<rect x="147.266" y="369.131" width="4.20978" height="46.7563" fill="#D9D9D9" stroke="black"/>
<rect x="174.184" y="369.131" width="4.20978" height="46.7563" fill="#D9D9D9" stroke="black"/>
<mask id="path-15-inside-4_997_9750" fill="white">
<path d="M240.016 142.882C247.054 143.06 252.704 148.821 252.704 155.902C252.704 163.095 246.873 168.927 239.68 168.927V142.877L240.016 142.882Z"/>
</mask>
<path d="M240.016 142.882C247.054 143.06 252.704 148.821 252.704 155.902C252.704 163.095 246.873 168.927 239.68 168.927V142.877L240.016 142.882Z" fill="#E7E7E7"/>
<path d="M240.016 142.882L240.041 141.882L240.03 141.882L240.016 142.882ZM252.704 155.902L253.704 155.902V155.902H252.704ZM239.68 168.927H238.68V169.927H239.68V168.927ZM239.68 142.877L239.694 141.877L238.68 141.862V142.877H239.68ZM240.016 142.882L239.99 143.882C246.487 144.046 251.704 149.365 251.704 155.902H252.704H253.704C253.704 148.278 247.62 142.074 240.041 141.882L240.016 142.882ZM252.704 155.902L251.704 155.902C251.704 162.543 246.32 167.927 239.68 167.927V168.927V169.927C247.425 169.927 253.704 163.648 253.704 155.902L252.704 155.902ZM239.68 168.927H240.68V142.877H239.68H238.68V168.927H239.68ZM239.68 142.877L239.665 143.877L240.001 143.882L240.016 142.882L240.03 141.882L239.694 141.877L239.68 142.877Z" fill="black" mask="url(#path-15-inside-4_997_9750)"/>
<mask id="path-17-inside-5_997_9750" fill="white">
<path d="M81.6406 142.879C74.4495 142.881 68.6211 148.712 68.6211 155.903C68.6213 163.095 74.4497 168.924 81.6406 168.927V142.879Z"/>
</mask>
<path d="M81.6406 142.879C74.4495 142.881 68.6211 148.712 68.6211 155.903C68.6213 163.095 74.4497 168.924 81.6406 168.927V142.879Z" fill="#E7E7E7"/>
<path d="M81.6406 142.879L81.6403 141.879L82.6406 141.879V142.879H81.6406ZM68.6211 155.903L67.6211 155.903V155.903H68.6211ZM81.6406 168.927H82.6406V169.927L81.6403 169.927L81.6406 168.927ZM81.6406 142.879L81.641 143.879C75.002 143.881 69.6211 149.264 69.6211 155.903H68.6211H67.6211C67.6211 148.159 73.897 141.882 81.6403 141.879L81.6406 142.879ZM68.6211 155.903L69.6211 155.903C69.6213 162.543 75.0021 167.924 81.641 167.927L81.6406 168.927L81.6403 169.927C73.8972 169.924 67.6214 163.647 67.6211 155.903L68.6211 155.903ZM81.6406 168.927H80.6406V142.879H81.6406H82.6406V168.927H81.6406Z" fill="black" mask="url(#path-17-inside-5_997_9750)"/>
<mask id="path-19-inside-6_997_9750" fill="white">
<path d="M178.891 85.5684C178.891 77.8957 170.727 71.6758 160.656 71.6758C150.586 71.676 142.423 77.8958 142.423 85.5684L142.424 85.5703H178.891V85.5684Z"/>
</mask>
<path d="M178.891 85.5684C178.891 77.8957 170.727 71.6758 160.656 71.6758C150.586 71.676 142.423 77.8958 142.423 85.5684L142.424 85.5703H178.891V85.5684Z" fill="#E7E7E7"/>
<path d="M178.891 85.5684L179.891 85.5683V85.5684H178.891ZM160.656 71.6758L160.656 70.6758H160.656V71.6758ZM142.423 85.5684L141.528 86.0156L141.423 85.8044L141.423 85.5683L142.423 85.5684ZM142.424 85.5703V86.5703H141.806L141.529 86.0175L142.424 85.5703ZM178.891 85.5703H179.891V86.5703H178.891V85.5703ZM178.891 85.5684L177.891 85.5684C177.891 82.1106 176.053 78.9095 172.944 76.5403C169.833 74.1704 165.492 72.6758 160.656 72.6758V71.6758V70.6758C165.891 70.6758 170.667 72.2911 174.156 74.9494C177.646 77.6083 179.891 81.3534 179.891 85.5683L178.891 85.5684ZM160.656 71.6758L160.656 72.6758C155.82 72.6759 151.48 74.1705 148.369 76.5404C145.26 78.9096 143.423 82.1106 143.423 85.5684L142.423 85.5684L141.423 85.5683C141.423 81.3535 143.668 77.6084 147.157 74.9495C150.646 72.2912 155.422 70.6759 160.656 70.6758L160.656 71.6758ZM142.423 85.5684L143.317 85.1211L143.318 85.1231L142.424 85.5703L141.529 86.0175L141.528 86.0156L142.423 85.5684ZM142.424 85.5703V84.5703H178.891V85.5703V86.5703H142.424V85.5703ZM178.891 85.5703H177.891V85.5684H178.891H179.891V85.5703H178.891Z" fill="black" mask="url(#path-19-inside-6_997_9750)"/>
<line x1="252.703" y1="157.139" x2="270.069" y2="157.139" stroke="black"/>
<line x1="159.426" y1="37.8164" x2="159.426" y2="71.68" stroke="black"/>
<line x1="52.1211" y1="159.742" x2="69.487" y2="159.742" stroke="black"/>
<circle cx="46.0462" cy="157.638" r="8.18297" fill="#EBC4C9" stroke="black"/>
<circle cx="160.229" cy="26.9631" r="10.3537" fill="#EBC4C9" stroke="black"/>
<circle cx="278.749" cy="155.904" r="8.18297" fill="#EBC4C9" stroke="black"/>
<path d="M159.33 50.9635L140.259 38.2508L137.219 36.0801L137.22 70.3778L159.33 59.6771L182.203 70.3778V36.0801L159.33 50.9635Z" fill="#EBC4C9" stroke="black"/>
<path d="M145.887 165.398C145.964 166.096 147.255 167.201 147.761 167.648C149.045 168.783 150.539 169.86 152.214 170.331C154.323 170.924 156.603 171.103 158.763 170.671C161.596 170.104 165.586 168.6 166.976 165.82" stroke="black" stroke-linecap="round"/>
<circle cx="200.012" cy="146.231" r="21.2074" fill="white" stroke="black"/>
<path d="M214.778 156.661C212.59 159.843 209.375 162.178 205.672 163.275C202.222 164.297 198.543 164.187 195.17 162.973C195.287 162.857 195.417 162.724 195.555 162.576C196.112 161.977 196.812 161.118 197.364 160.09C197.914 159.064 198.33 157.843 198.282 156.531C198.237 155.289 197.776 154.006 196.694 152.769L196.469 152.522C193.962 149.875 190.838 149.895 188.425 150.536C187.218 150.856 186.168 151.335 185.422 151.732C185.17 151.866 184.953 151.993 184.774 152.1C183.696 148.623 183.768 144.885 184.993 141.445C186.289 137.807 188.795 134.723 192.091 132.71C195.387 130.697 199.275 129.876 203.103 130.385C206.932 130.893 210.47 132.702 213.127 135.506C215.782 138.309 217.395 141.94 217.696 145.79C217.997 149.641 216.967 153.479 214.778 156.661Z" fill="black" stroke="black"/>
<path d="M202.22 137.507C202.736 137.235 203.495 137.319 204.379 137.892C205.246 138.455 206.133 139.435 206.805 140.711C207.477 141.986 207.784 143.271 207.758 144.305C207.731 145.358 207.371 146.031 206.854 146.303C206.338 146.575 205.579 146.491 204.696 145.918C203.829 145.355 202.942 144.375 202.27 143.1C201.598 141.825 201.291 140.538 201.317 139.505C201.344 138.452 201.704 137.779 202.22 137.507Z" fill="#D9D9D9" stroke="black"/>
<circle cx="117.52" cy="146.233" r="21.2074" fill="white" stroke="black"/>
<path d="M133.239 155.167C131.051 158.349 127.836 160.684 124.133 161.781C120.683 162.803 117.004 162.693 113.631 161.479C113.748 161.363 113.878 161.23 114.016 161.082C114.573 160.483 115.273 159.624 115.825 158.596C116.375 157.569 116.791 156.349 116.743 155.037C116.698 153.795 116.237 152.512 115.155 151.274L114.93 151.028C112.423 148.381 109.299 148.401 106.886 149.042C105.679 149.362 104.629 149.841 103.883 150.238C103.631 150.372 103.414 150.498 103.235 150.606C102.157 147.129 102.229 143.391 103.454 139.951C104.75 136.313 107.256 133.229 110.552 131.216C113.848 129.203 117.736 128.382 121.564 128.89C125.393 129.399 128.931 131.207 131.587 134.011C134.243 136.815 135.856 140.446 136.157 144.296C136.458 148.147 135.428 151.985 133.239 155.167Z" fill="black" stroke="black"/>
<path d="M120.466 136.818C120.982 136.545 121.742 136.629 122.625 137.202C123.492 137.765 124.379 138.746 125.051 140.021C125.723 141.296 126.03 142.582 126.004 143.616C125.977 144.668 125.617 145.342 125.1 145.614C124.584 145.886 123.825 145.801 122.943 145.229C122.075 144.666 121.188 143.686 120.516 142.411C119.844 141.135 119.537 139.849 119.564 138.815C119.59 137.763 119.95 137.09 120.466 136.818Z" fill="#D9D9D9" stroke="black"/>
<path d="M211.297 104.557L219.375 109.444" stroke="black" stroke-linecap="round"/>
<path d="M106.496 104.557L98.4181 109.444" stroke="black" stroke-linecap="round"/>
<rect x="131.637" y="243.234" width="58.0442" height="43.2831" rx="6.5" fill="white" stroke="black"/>
<path d="M164.103 261.483L164.233 261.785H175.216L166.732 266.408L166.331 266.627L166.513 267.046L169.833 274.712L160.902 269.846L160.663 269.715L160.424 269.846L151.491 274.712L154.813 267.046L154.995 266.627L154.594 266.408L146.109 261.785H157.092L157.223 261.483L160.662 253.543L164.103 261.483Z" fill="#FCED9C" stroke="black"/>
</g>
<rect x="0.5" y="390.5" width="321" height="59" fill="black"/>
<rect x="0.5" y="390.5" width="321" height="59" stroke="black"/>
<path d="M40.6641 428.5L35.3984 421.508H33.9766V428.5H31.0781V412.5H33.9766V419.078H34.7031L40.3906 412.5H43.9609L37.6406 419.797L44.2344 428.5H40.6641ZM48.8047 424.672L53.6094 416.5H56.5156V428.5H53.7813V420.32L48.9922 428.5H46.0781V416.5H48.8047V424.672ZM59.4199 428.5V416.5H62.248V421.344H63.2793L66.8887 416.5H70.2949L65.8496 422.391L70.3418 428.5H66.9199L63.6309 423.977H62.248V428.5H59.4199ZM74.6719 424.672L79.4766 416.5H82.3828V428.5H79.6484V420.32L74.8594 428.5H71.9453V416.5H74.6719V424.672ZM87.0293 428.672C86.5553 428.672 86.1491 428.505 85.8105 428.172C85.472 427.839 85.3053 427.432 85.3105 426.953C85.3053 426.484 85.472 426.083 85.8105 425.75C86.1491 425.417 86.5553 425.25 87.0293 425.25C87.4876 425.25 87.8861 425.417 88.2246 425.75C88.5684 426.083 88.7428 426.484 88.748 426.953C88.7428 427.271 88.6595 427.56 88.498 427.82C88.3418 428.081 88.1335 428.289 87.873 428.445C87.6178 428.596 87.3366 428.672 87.0293 428.672ZM95.7168 432.359V426.133H96.7871C97.1465 425.846 97.4824 425.443 97.7949 424.922C98.1074 424.401 98.373 423.687 98.5918 422.781C98.8105 421.875 98.9616 420.703 99.0449 419.266L99.4668 412.5H109.693V426.133H111.475V432.344H108.693V428.5H98.498V432.359H95.7168ZM100.162 426.133H106.912V414.93H102.076L101.826 419.266C101.758 420.354 101.649 421.328 101.498 422.188C101.347 423.047 101.157 423.805 100.928 424.461C100.699 425.112 100.443 425.669 100.162 426.133ZM116.438 424.672L121.242 416.5H124.148V428.5H121.414V420.32L116.625 428.5H113.711V416.5H116.438V424.672ZM127.053 433V416.5H129.834V418.484H129.998C130.144 418.193 130.35 417.883 130.615 417.555C130.881 417.221 131.24 416.937 131.693 416.703C132.146 416.464 132.725 416.344 133.428 416.344C134.355 416.344 135.191 416.581 135.936 417.055C136.686 417.523 137.279 418.219 137.717 419.141C138.16 420.057 138.381 421.182 138.381 422.516C138.381 423.833 138.165 424.953 137.732 425.875C137.3 426.797 136.712 427.5 135.967 427.984C135.222 428.469 134.378 428.711 133.436 428.711C132.748 428.711 132.178 428.596 131.725 428.367C131.271 428.138 130.907 427.862 130.631 427.539C130.36 427.211 130.149 426.901 129.998 426.609H129.881V433H127.053ZM129.826 422.5C129.826 423.276 129.936 423.956 130.154 424.539C130.378 425.122 130.699 425.578 131.115 425.906C131.537 426.229 132.048 426.391 132.646 426.391C133.271 426.391 133.795 426.224 134.217 425.891C134.639 425.552 134.956 425.091 135.17 424.508C135.389 423.919 135.498 423.25 135.498 422.5C135.498 421.755 135.391 421.094 135.178 420.516C134.964 419.937 134.646 419.484 134.225 419.156C133.803 418.828 133.277 418.664 132.646 418.664C132.042 418.664 131.529 418.823 131.107 419.141C130.686 419.458 130.365 419.904 130.146 420.477C129.933 421.049 129.826 421.724 129.826 422.5ZM146.115 428.734C144.912 428.734 143.873 428.484 142.998 427.984C142.128 427.479 141.459 426.766 140.99 425.844C140.521 424.917 140.287 423.826 140.287 422.57C140.287 421.336 140.521 420.253 140.99 419.32C141.464 418.383 142.126 417.654 142.975 417.133C143.824 416.607 144.821 416.344 145.967 416.344C146.706 416.344 147.404 416.464 148.061 416.703C148.722 416.937 149.305 417.302 149.811 417.797C150.321 418.292 150.722 418.922 151.014 419.687C151.305 420.448 151.451 421.354 151.451 422.406V423.273H141.615V421.367H148.74C148.735 420.826 148.618 420.344 148.389 419.922C148.16 419.495 147.839 419.159 147.428 418.914C147.021 418.669 146.548 418.547 146.006 418.547C145.428 418.547 144.92 418.687 144.482 418.969C144.045 419.245 143.704 419.609 143.459 420.062C143.219 420.51 143.097 421.003 143.092 421.539V423.203C143.092 423.901 143.219 424.5 143.475 425C143.73 425.495 144.087 425.875 144.545 426.141C145.003 426.401 145.54 426.531 146.154 426.531C146.566 426.531 146.938 426.474 147.271 426.359C147.605 426.24 147.894 426.065 148.139 425.836C148.383 425.607 148.568 425.323 148.693 424.984L151.334 425.281C151.167 425.979 150.85 426.589 150.381 427.109C149.917 427.625 149.324 428.026 148.6 428.312C147.876 428.594 147.048 428.734 146.115 428.734ZM153.844 428.5V416.5H156.672V421.344H157.703L161.313 416.5H164.719L160.273 422.391L164.766 428.5H161.344L158.055 423.977H156.672V428.5H153.844ZM165.713 418.82V416.5H176.213V418.82H172.33V428.5H169.596V418.82H165.713ZM183.205 428.734C182.033 428.734 181.018 428.477 180.158 427.961C179.299 427.445 178.632 426.724 178.158 425.797C177.689 424.87 177.455 423.786 177.455 422.547C177.455 421.307 177.689 420.221 178.158 419.289C178.632 418.357 179.299 417.633 180.158 417.117C181.018 416.602 182.033 416.344 183.205 416.344C184.377 416.344 185.393 416.602 186.252 417.117C187.111 417.633 187.775 418.357 188.244 419.289C188.718 420.221 188.955 421.307 188.955 422.547C188.955 423.786 188.718 424.87 188.244 425.797C187.775 426.724 187.111 427.445 186.252 427.961C185.393 428.477 184.377 428.734 183.205 428.734ZM183.221 426.469C183.856 426.469 184.387 426.294 184.814 425.945C185.242 425.591 185.559 425.117 185.768 424.523C185.981 423.93 186.088 423.268 186.088 422.539C186.088 421.805 185.981 421.141 185.768 420.547C185.559 419.948 185.242 419.471 184.814 419.117C184.387 418.763 183.856 418.586 183.221 418.586C182.57 418.586 182.028 418.763 181.596 419.117C181.169 419.471 180.848 419.948 180.635 420.547C180.426 421.141 180.322 421.805 180.322 422.539C180.322 423.268 180.426 423.93 180.635 424.523C180.848 425.117 181.169 425.591 181.596 425.945C182.028 426.294 182.57 426.469 183.221 426.469ZM191.355 433V416.5H194.137V418.484H194.301C194.447 418.193 194.652 417.883 194.918 417.555C195.184 417.221 195.543 416.937 195.996 416.703C196.449 416.464 197.027 416.344 197.73 416.344C198.658 416.344 199.493 416.581 200.238 417.055C200.988 417.523 201.582 418.219 202.02 419.141C202.462 420.057 202.684 421.182 202.684 422.516C202.684 423.833 202.467 424.953 202.035 425.875C201.603 426.797 201.014 427.5 200.27 427.984C199.525 428.469 198.681 428.711 197.738 428.711C197.051 428.711 196.48 428.596 196.027 428.367C195.574 428.138 195.21 427.862 194.934 427.539C194.663 427.211 194.452 426.901 194.301 426.609H194.184V433H191.355ZM194.129 422.5C194.129 423.276 194.238 423.956 194.457 424.539C194.681 425.122 195.001 425.578 195.418 425.906C195.84 426.229 196.35 426.391 196.949 426.391C197.574 426.391 198.098 426.224 198.52 425.891C198.941 425.552 199.259 425.091 199.473 424.508C199.691 423.919 199.801 423.25 199.801 422.5C199.801 421.755 199.694 421.094 199.48 420.516C199.267 419.937 198.949 419.484 198.527 419.156C198.105 418.828 197.579 418.664 196.949 418.664C196.345 418.664 195.832 418.823 195.41 419.141C194.988 419.458 194.668 419.904 194.449 420.477C194.236 421.049 194.129 421.724 194.129 422.5ZM209.898 425.211H212.703C212.729 425.659 212.93 426.005 213.305 426.25C213.68 426.495 214.167 426.617 214.766 426.617C215.375 426.617 215.888 426.484 216.305 426.219C216.727 425.948 216.938 425.539 216.938 424.992C216.938 424.669 216.857 424.385 216.695 424.141C216.534 423.891 216.307 423.698 216.016 423.562C215.724 423.427 215.38 423.359 214.984 423.359H213.148V421.352H214.984C215.573 421.352 216.018 421.216 216.32 420.945C216.628 420.674 216.781 420.333 216.781 419.922C216.781 419.479 216.62 419.12 216.297 418.844C215.979 418.568 215.539 418.43 214.977 418.43C214.414 418.43 213.945 418.557 213.57 418.812C213.201 419.068 213.008 419.396 212.992 419.797H210.203C210.214 419.099 210.422 418.492 210.828 417.977C211.24 417.461 211.792 417.06 212.484 416.773C213.182 416.487 213.969 416.344 214.844 416.344C215.781 416.344 216.591 416.484 217.273 416.766C217.956 417.047 218.482 417.44 218.852 417.945C219.221 418.445 219.406 419.034 219.406 419.711C219.406 420.362 219.203 420.901 218.797 421.328C218.391 421.75 217.844 422.052 217.156 422.234V422.359C217.63 422.385 218.057 422.521 218.438 422.766C218.818 423.005 219.12 423.331 219.344 423.742C219.568 424.154 219.68 424.63 219.68 425.172C219.68 425.906 219.469 426.542 219.047 427.078C218.625 427.609 218.044 428.018 217.305 428.305C216.57 428.591 215.729 428.734 214.781 428.734C213.859 428.734 213.034 428.596 212.305 428.32C211.581 428.039 211.005 427.635 210.578 427.109C210.151 426.583 209.924 425.951 209.898 425.211ZM225.359 428.742C224.599 428.742 223.914 428.607 223.305 428.336C222.701 428.06 222.221 427.654 221.867 427.117C221.518 426.581 221.344 425.919 221.344 425.133C221.344 424.456 221.469 423.896 221.719 423.453C221.969 423.01 222.31 422.656 222.742 422.391C223.174 422.125 223.661 421.924 224.203 421.789C224.75 421.648 225.315 421.547 225.898 421.484C226.602 421.411 227.172 421.346 227.609 421.289C228.047 421.227 228.365 421.133 228.563 421.008C228.766 420.878 228.867 420.677 228.867 420.406V420.359C228.867 419.771 228.693 419.315 228.344 418.992C227.995 418.669 227.492 418.508 226.836 418.508C226.143 418.508 225.594 418.659 225.188 418.961C224.786 419.263 224.516 419.62 224.375 420.031L221.734 419.656C221.943 418.927 222.286 418.318 222.766 417.828C223.245 417.333 223.831 416.964 224.523 416.719C225.216 416.469 225.982 416.344 226.82 416.344C227.398 416.344 227.974 416.411 228.547 416.547C229.12 416.682 229.643 416.906 230.117 417.219C230.591 417.526 230.971 417.945 231.258 418.477C231.549 419.008 231.695 419.672 231.695 420.469V428.5H228.977V426.852H228.883C228.711 427.185 228.469 427.497 228.156 427.789C227.849 428.076 227.461 428.307 226.992 428.484C226.529 428.656 225.984 428.742 225.359 428.742ZM226.094 426.664C226.661 426.664 227.154 426.552 227.57 426.328C227.987 426.099 228.307 425.797 228.531 425.422C228.76 425.047 228.875 424.638 228.875 424.195V422.781C228.786 422.854 228.635 422.922 228.422 422.984C228.214 423.047 227.979 423.102 227.719 423.148C227.458 423.195 227.201 423.237 226.945 423.273C226.69 423.31 226.469 423.341 226.281 423.367C225.859 423.424 225.482 423.518 225.148 423.648C224.815 423.779 224.552 423.961 224.359 424.195C224.167 424.424 224.07 424.721 224.07 425.086C224.07 425.607 224.26 426 224.641 426.266C225.021 426.531 225.505 426.664 226.094 426.664ZM234.539 428.5V416.5H239.578C241 416.5 242.122 416.784 242.945 417.352C243.773 417.919 244.188 418.711 244.188 419.727C244.188 420.398 243.953 420.948 243.484 421.375C243.021 421.797 242.388 422.081 241.586 422.227C242.216 422.279 242.768 422.437 243.242 422.703C243.721 422.969 244.096 423.318 244.367 423.75C244.638 424.182 244.773 424.68 244.773 425.242C244.773 425.904 244.599 426.479 244.25 426.969C243.906 427.453 243.404 427.831 242.742 428.102C242.086 428.367 241.289 428.5 240.352 428.5H234.539ZM237.188 426.273H240.352C240.872 426.273 241.281 426.151 241.578 425.906C241.875 425.656 242.023 425.318 242.023 424.891C242.023 424.396 241.875 424.008 241.578 423.727C241.281 423.44 240.872 423.297 240.352 423.297H237.188V426.273ZM237.188 421.469H239.633C240.018 421.469 240.349 421.414 240.625 421.305C240.901 421.19 241.112 421.031 241.258 420.828C241.404 420.62 241.477 420.372 241.477 420.086C241.477 419.674 241.307 419.352 240.969 419.117C240.635 418.883 240.172 418.766 239.578 418.766H237.188V421.469ZM252.342 428.734C251.17 428.734 250.154 428.477 249.295 427.961C248.436 427.445 247.769 426.724 247.295 425.797C246.826 424.87 246.592 423.786 246.592 422.547C246.592 421.307 246.826 420.221 247.295 419.289C247.769 418.357 248.436 417.633 249.295 417.117C250.154 416.602 251.17 416.344 252.342 416.344C253.514 416.344 254.529 416.602 255.389 417.117C256.248 417.633 256.912 418.357 257.381 419.289C257.855 420.221 258.092 421.307 258.092 422.547C258.092 423.786 257.855 424.87 257.381 425.797C256.912 426.724 256.248 427.445 255.389 427.961C254.529 428.477 253.514 428.734 252.342 428.734ZM252.357 426.469C252.993 426.469 253.524 426.294 253.951 425.945C254.378 425.591 254.696 425.117 254.904 424.523C255.118 423.93 255.225 423.268 255.225 422.539C255.225 421.805 255.118 421.141 254.904 420.547C254.696 419.948 254.378 419.471 253.951 419.117C253.524 418.763 252.993 418.586 252.357 418.586C251.706 418.586 251.165 418.763 250.732 419.117C250.305 419.471 249.985 419.948 249.771 420.547C249.563 421.141 249.459 421.805 249.459 422.539C249.459 423.268 249.563 423.93 249.771 424.523C249.985 425.117 250.305 425.591 250.732 425.945C251.165 426.294 251.706 426.469 252.357 426.469ZM259.43 431.984V426.172H260.383C260.638 425.974 260.852 425.706 261.023 425.367C261.195 425.023 261.336 424.62 261.445 424.156C261.56 423.687 261.654 423.164 261.727 422.586C261.799 422.003 261.865 421.375 261.922 420.703L262.266 416.5H270.937V426.172H272.797V431.984H270.063V428.5H262.211V431.984H259.43ZM263.289 426.172H268.234V418.781H264.719L264.531 420.703C264.427 421.974 264.289 423.062 264.117 423.969C263.945 424.875 263.669 425.609 263.289 426.172ZM278.361 428.742C277.601 428.742 276.916 428.607 276.307 428.336C275.702 428.06 275.223 427.654 274.869 427.117C274.52 426.581 274.346 425.919 274.346 425.133C274.346 424.456 274.471 423.896 274.721 423.453C274.971 423.01 275.312 422.656 275.744 422.391C276.176 422.125 276.663 421.924 277.205 421.789C277.752 421.648 278.317 421.547 278.9 421.484C279.604 421.411 280.174 421.346 280.611 421.289C281.049 421.227 281.367 421.133 281.564 421.008C281.768 420.878 281.869 420.677 281.869 420.406V420.359C281.869 419.771 281.695 419.315 281.346 418.992C280.997 418.669 280.494 418.508 279.838 418.508C279.145 418.508 278.596 418.659 278.189 418.961C277.788 419.263 277.518 419.62 277.377 420.031L274.736 419.656C274.945 418.927 275.288 418.318 275.768 417.828C276.247 417.333 276.833 416.964 277.525 416.719C278.218 416.469 278.984 416.344 279.822 416.344C280.4 416.344 280.976 416.411 281.549 416.547C282.122 416.682 282.645 416.906 283.119 417.219C283.593 417.526 283.973 417.945 284.26 418.477C284.551 419.008 284.697 419.672 284.697 420.469V428.5H281.979V426.852H281.885C281.713 427.185 281.471 427.497 281.158 427.789C280.851 428.076 280.463 428.307 279.994 428.484C279.531 428.656 278.986 428.742 278.361 428.742ZM279.096 426.664C279.663 426.664 280.156 426.552 280.572 426.328C280.989 426.099 281.309 425.797 281.533 425.422C281.762 425.047 281.877 424.638 281.877 424.195V422.781C281.788 422.854 281.637 422.922 281.424 422.984C281.215 423.047 280.981 423.102 280.721 423.148C280.46 423.195 280.202 423.237 279.947 423.273C279.692 423.31 279.471 423.341 279.283 423.367C278.861 423.424 278.484 423.518 278.15 423.648C277.817 423.779 277.554 423.961 277.361 424.195C277.169 424.424 277.072 424.721 277.072 425.086C277.072 425.607 277.262 426 277.643 426.266C278.023 426.531 278.507 426.664 279.096 426.664ZM289.283 428.672C288.809 428.672 288.403 428.505 288.064 428.172C287.726 427.839 287.559 427.432 287.564 426.953C287.559 426.484 287.726 426.083 288.064 425.75C288.403 425.417 288.809 425.25 289.283 425.25C289.742 425.25 290.14 425.417 290.479 425.75C290.822 426.083 290.997 426.484 291.002 426.953C290.997 427.271 290.913 427.56 290.752 427.82C290.596 428.081 290.387 428.289 290.127 428.445C289.872 428.596 289.59 428.672 289.283 428.672Z" fill="white"/>
<rect x="0.5" y="0.5" width="1239" height="449" stroke="black"/>
<defs>
<linearGradient id="paint0_linear_997_9750" x1="162.394" y1="218.361" x2="162.394" y2="364.722" gradientUnits="userSpaceOnUse">
<stop stop-color="#E7E7E7"/>
<stop offset="1" stop-color="#ECC2C6"/>
</linearGradient>
</defs>
</svg>
