<svg width="375" height="100" viewBox="0 0 375 100" fill="none" xmlns="http://www.w3.org/2000/svg">
<path d="M10 40C11 35.5 21.7264 22.6537 26.7427 19.5C31.9505 16.1831 51.4681 12.8017 56.0396 11.5952C61.6135 10.1241 67.3726 9.53965 72.9122 8.28927C77.7699 7.19282 84.2685 6.95805 92.4937 5.90351C96.7913 5.35253 117.238 4.67289 145.54 5.17622C156.074 5.36355 159.27 5.82161 162.887 5.90902C170.41 6.09085 184.605 6.96199 201.517 9.22595C219.256 11.6007 227.153 11.4225 247.078 12.89C259.497 13.8046 273.159 13.4158 287.991 15.0939C296.075 16.0086 304.903 16.4717 312.231 18.7745C323.346 22.2677 329.151 23.414 334.112 24.8298C340.58 26.6756 348.729 26.549 356.386 34.2241C364.621 42.4778 366.764 46.8747 368.202 51.2881C369.64 55.7014 370.818 63.1588 369.268 69.1069C368.552 71.8563 366.794 76.7969 361.335 79.5811C350.554 85.0799 341.38 88.1354 330.288 89.4768C321.085 90.5898 309.055 93.9284 281.722 94.8048C264.71 95.3503 254.737 94.5969 249.103 94.4301C230.307 93.8736 222.407 92.3228 201.328 92.6008C186.707 92.7937 160.049 93.8674 145.987 93.6973C130.504 93.51 118.283 92.6131 105.316 92.2262C86.6666 91.6697 78.7947 90.3698 67.8391 89.6531C53.8585 88.7384 31.4204 87.9988 26.7427 85.2397C22.0628 82.4793 15.3772 79.7005 8.24909 70.7158C5.92796 67.79 4.17986 63.186 5.40019 57.8558C6.66038 52.3515 8.60578 46.274 10 40Z" stroke="#0026FF" stroke-width="10" stroke-linejoin="round"/>
</svg>
