<svg width="430" height="99" viewBox="0 0 430 99" fill="none" xmlns="http://www.w3.org/2000/svg">
<path d="M10.7534 39.6111C11.9041 35.1611 24.2468 22.4576 30.019 19.3389C36.0115 16.0588 58.4701 12.715 63.7305 11.5219C70.1443 10.0671 76.7712 9.48921 83.1456 8.25273C88.7352 7.16845 96.213 6.9363 105.678 5.89347C110.623 5.34861 134.151 4.67653 166.718 5.17426C178.839 5.35951 182.516 5.81248 186.678 5.89892C195.335 6.07873 211.668 6.94019 231.129 9.17899C251.542 11.5273 260.628 11.3512 283.555 12.8023C297.845 13.7068 313.567 13.3223 330.633 14.9818C339.935 15.8862 350.094 16.3442 358.526 18.6214C371.316 22.0759 377.996 23.2094 383.704 24.6095C391.147 26.4348 400.524 26.3095 409.335 33.8994C418.81 42.0614 421.276 46.4094 422.931 50.7738C424.586 55.1381 425.941 62.5126 424.158 68.3946C423.334 71.1134 421.311 75.9992 415.03 78.7524C402.624 84.1901 392.068 87.2117 379.304 88.5381C368.714 89.6387 354.872 92.9403 323.42 93.8069C303.844 94.3464 292.369 93.6014 285.885 93.4364C264.258 92.8861 255.166 91.3526 230.912 91.6275C214.087 91.8182 183.412 92.88 167.232 92.7118C149.416 92.5265 135.354 91.6396 120.433 91.257C98.9726 90.7067 89.9145 89.4213 77.308 88.7125C61.2207 87.808 35.4016 87.0766 30.019 84.3481C24.6339 81.6184 16.9408 78.8705 8.73868 69.9856C6.06779 67.0924 4.05627 62.5395 5.46049 57.2685C6.91058 51.8253 9.14912 45.8154 10.7534 39.6111Z" stroke="#0026FF" stroke-width="10" stroke-linejoin="round"/>
</svg>
