<svg width="462" height="39" viewBox="0 0 462 39" fill="none" xmlns="http://www.w3.org/2000/svg">
<path d="M2.22266 20.283C26.7703 13.7851 41.5821 10.7987 45.4053 11.5261C51.0361 12.5975 62.301 20.2392 74.2029 24.2868C81.6817 26.8301 88.599 25.7526 94.6374 24.3032C102.892 22.3218 107.94 16.6512 112.693 12.8224C116.719 9.57892 121.439 8.62176 127.089 7.16137C136.833 4.64285 150.953 7.50596 162.078 11.3347C168.672 13.6041 173.575 16.9793 180.5 21.7215C190.613 28.6473 196.548 29.3845 202.023 31.0363C211.138 33.7864 219.52 25.7745 225.722 21.3933C233.194 16.1161 241.026 11.9254 248.509 8.44126C261.572 2.35857 281.152 8.59988 287.71 10.7932C295.759 13.4851 306.268 18.7953 313.061 21.3715C319.779 23.9189 331.078 20.3049 337.489 16.8317C344.455 13.0572 350.419 11.1815 360.609 9.52972C381.531 6.13811 386.89 11.1597 391.824 12.9811C399.077 15.6586 405.239 34.6521 413.528 33.3937C426 31.5 424.45 30.1064 429.203 27.5576C433.844 25.0692 443.053 18.839 448.522 14.8298C449.988 13.7304 451.432 12.6474 452.898 11.909C454.364 11.1706 455.808 10.8096 459.483 9.34375" stroke="#0026FF" stroke-width="10" stroke-linejoin="round"/>
</svg>
