<svg width="108" height="99" viewBox="0 0 108 99" fill="none" xmlns="http://www.w3.org/2000/svg">
<path d="M79.1992 27.582C79.1992 27.582 88.227 30.1436 91.7679 33.9857C95.4406 37.9707 96.0884 46.456 96.0884 46.456" stroke="black" stroke-width="3"/>
<path d="M87.8379 23.873C87.8379 23.873 94.509 26.0976 98.05 29.9397C101.723 33.9247 102.37 40.3878 102.37 40.3878" stroke="black" stroke-width="3"/>
<path d="M20.6748 24.6435L44.8303 31.8897M70.1641 39.555C92.1594 48.1405 85.6425 62.0615 87.4461 79.6622C87.9164 84.2512 86.7889 89.1727 90.9811 92.0505C94.3348 94.3527 107.085 93.9773 107.085 93.9773M70.1641 39.555C69.8143 50.0308 68.0871 56.0185 62.7014 65.4247C56.2432 76.7044 36.7784 92.0505 36.7784 92.0505H23.0314M70.1641 39.555C60.2706 36.5615 44.8303 31.8897 44.8303 31.8897M44.8303 31.8897C44.8303 31.8897 33.4612 42.3253 36.7784 48.91C39.2267 53.7697 49.7399 56.6618 49.7399 56.6618M44.8303 31.8897C44.8303 31.8897 51.4775 23.2027 49.7399 17.5657C47.964 11.8045 43.0648 8.72241 36.7784 6.18935C24.5794 1.27375 3 13.1843 3 13.1843" stroke="black" stroke-width="9"/>
</svg>
