<svg width="46" height="60" viewBox="0 0 46 60" fill="none" xmlns="http://www.w3.org/2000/svg">
<path d="M0 56.9996H5.45455L22.7273 34.7703M22.7273 34.7703L39.4545 56.9996H46M22.7273 34.7703V23.5645M22.7273 8.88672V23.5645M22.7273 23.5645C22.7273 23.5645 30.7158 23.4576 34.3636 26.3887C35.776 27.5236 37.0956 28.0726 37.4545 29.8507C38.0995 33.0452 30.7273 34.7703 30.7273 34.7703M22.7273 23.5645C22.7273 23.5645 15.0587 23.5088 11.6364 26.3887C10.2857 27.5254 9.02362 28.1083 8.72727 29.8507C8.21859 32.8415 14.7273 34.7703 14.7273 34.7703" stroke="#0026FF" stroke-width="6"/>
<path d="M29.0527 6.52115L33.8948 1" stroke="#0026FF" stroke-width="2"/>
<path d="M16.9473 6.52115L12.1052 1" stroke="#0026FF" stroke-width="2"/>
<path d="M39.628 14.0721L32.3321 12.6462" stroke="#0026FF" stroke-width="2"/>
<path d="M6.02014 13.8791L13.6679 12.6462" stroke="#0026FF" stroke-width="2"/>
<path d="M31.4727 9.67805L40.3498 5.73438" stroke="#0026FF" stroke-width="2"/>
<path d="M14.5273 9.67805L5.65015 5.73438" stroke="#0026FF" stroke-width="2"/>
</svg>
