<svg width="176" height="189" viewBox="0 0 176 189" fill="none" xmlns="http://www.w3.org/2000/svg">
<path d="M129.719 52.8809C129.719 52.8809 144.377 57.745 150.126 65.0406C156.09 72.6077 157.141 88.7202 157.141 88.7202" stroke="black" stroke-width="6"/>
<path d="M143.754 45.8379C143.754 45.8379 154.586 50.0621 160.335 57.3577C166.298 64.9248 167.35 77.1973 167.35 77.1973" stroke="black" stroke-width="6"/>
<path d="M34.6981 47.3005L73.9189 61.0603M115.053 75.6156C150.766 91.9185 140.185 118.353 143.113 151.774C143.877 160.488 142.046 169.834 148.853 175.298C154.298 179.67 175 178.957 175 178.957M115.053 75.6156C114.485 95.508 111.68 106.878 102.936 124.739C92.4497 146.158 60.8453 175.298 60.8453 175.298H38.5245M115.053 75.6156L73.9189 61.0603M73.9189 61.0603C73.9189 61.0603 55.4591 80.8762 60.8453 93.3797C64.8205 102.608 81.8906 108.099 81.8906 108.099M73.9189 61.0603C73.9189 61.0603 84.7119 44.5646 81.8906 33.8608C79.007 22.9209 71.0522 17.0684 60.8453 12.2584C41.0379 2.92432 6 25.541 6 25.541" stroke="black" stroke-width="20"/>
</svg>
