<svg width="858" height="380" viewBox="0 0 858 380" fill="none" xmlns="http://www.w3.org/2000/svg">
<path d="M4.67862 39.5V32.9801C4.67862 31.1288 5.04084 29.2372 5.76527 27.3054C6.4897 25.3736 7.44555 23.5524 8.63281 21.842C9.82008 20.1315 11.108 18.7028 12.4964 17.5558L18.1712 20.9062C17.0443 22.6771 16.1186 24.5284 15.3942 26.4602C14.6899 28.392 14.3377 30.5452 14.3377 32.9197V39.5H4.67862ZM19.9219 39.5V32.9801C19.9219 31.1288 20.2841 29.2372 21.0085 27.3054C21.733 25.3736 22.6888 23.5524 23.8761 21.842C25.0633 20.1315 26.3512 18.7028 27.7397 17.5558L33.4144 20.9062C32.2875 22.6771 31.3619 24.5284 30.6374 26.4602C29.9331 28.392 29.581 30.5452 29.581 32.9197V39.5H19.9219Z" fill="black"/>
<path d="M837.907 340.182V346.702C837.907 348.553 837.545 350.445 836.821 352.376C836.116 354.288 835.171 356.099 833.983 357.81C832.796 359.5 831.498 360.939 830.089 362.126L824.415 358.776C825.421 357.186 826.306 355.425 827.071 353.493C827.856 351.561 828.248 349.318 828.248 346.762V340.182H837.907ZM853.09 340.182V346.702C853.09 348.553 852.728 350.445 852.004 352.376C851.299 354.288 850.353 356.099 849.166 357.81C847.979 359.5 846.671 360.939 845.242 362.126L839.567 358.776C840.594 357.186 841.489 355.425 842.254 353.493C843.039 351.561 843.431 349.318 843.431 346.762V340.182H853.09Z" fill="#0026FF"/>
</svg>
