<svg width="219" height="228" viewBox="0 0 219 228" fill="none" xmlns="http://www.w3.org/2000/svg">
<path d="M4 212.782C4 212.782 28.9618 219.63 41.7984 212.782C66.7097 199.493 9.23295 167.853 25.3643 145.61C42.412 122.103 97.6744 139.433 97.6744 139.433M97.6744 139.433C97.6744 139.433 99.8347 177.732 117.395 189.619C143.071 207 164.462 130.373 187.24 151.014C198.197 160.943 199.566 185.759 199.566 185.759M97.6744 139.433L96.8527 90.0181M96.8527 90.0181L216 69.1713M96.8527 90.0181C96.8527 90.0181 75.0682 59.9621 54.9457 47.5525C40.8901 38.8843 15.5039 31.3383 15.5039 31.3383M96.8527 90.0181C96.8527 90.0181 105.898 63.9297 117.395 50.6409C127.607 38.8378 149.442 25.9336 149.442 25.9336" stroke="black" stroke-width="24"/>
<path d="M160.121 15.1257L169.16 2" stroke="black" stroke-width="6"/>
<path d="M168.342 35.1996L187.725 36.103" stroke="black" stroke-width="6"/>
<path d="M166.695 25.258L186.416 15.1269" stroke="black" stroke-width="6"/>
</svg>
