<svg width="220" height="246" viewBox="0 0 220 246" fill="none" xmlns="http://www.w3.org/2000/svg">
<path d="M87.1567 241.172C87.1567 241.172 97.1419 213.695 84.5 202.5C69.9083 189.578 61.3089 214.398 41.9206 212.4C-3.10538 207.76 89.3187 106.628 89.3187 106.628M89.3187 106.628C89.3187 106.628 95.6492 205.67 135.553 195C153.602 190.174 153.016 167.27 171.475 170.158C190.243 173.094 195.59 212.4 195.59 212.4M89.3187 106.628L93.8091 77.5237M93.8091 77.5237C93.8091 77.5237 100.344 58.7774 106.781 47.9206C113.693 36.2641 128.235 20.6459 128.235 20.6459M93.8091 77.5237C93.8091 77.5237 69.9996 49.4161 51.0676 35.7801C34.4916 23.8409 5 11 5 11M93.8091 77.5237C93.8091 77.5237 119.331 75.4147 135.553 73.0333C167.635 68.3237 216.545 54.7393 216.545 54.7393" stroke="black" stroke-width="24"/>
<path d="M139.044 144.378C139.044 144.378 134.129 133.814 133.889 126.583C133.618 118.412 139.044 106.293 139.044 106.293" stroke="black" stroke-width="6"/>
<path d="M157.341 150.037C157.341 150.037 148.582 135.506 148.692 125.257C148.799 115.314 157.341 101.309 157.341 101.309" stroke="black" stroke-width="6"/>
</svg>
